<svg id="svg" version="1.1" xmlns="http://www.w3.org/2000/svg" xmlns:xlink="http://www.w3.org/1999/xlink" width="400" height="400" viewBox="0, 0, 400,400"><g id="svgg"><path id="path0" d="M142.400 51.000 C 142.400 51.467,141.867 51.600,140.000 51.600 C 138.667 51.600,137.600 51.778,137.600 52.000 C 137.600 52.226,136.467 52.400,135.000 52.400 C 132.956 52.400,132.400 52.528,132.400 53.000 C 132.400 53.467,131.867 53.600,130.000 53.600 C 128.667 53.600,127.600 53.778,127.600 54.000 C 127.600 54.220,126.700 54.400,125.600 54.400 C 124.089 54.400,123.600 54.547,123.600 55.000 C 123.600 55.453,123.111 55.600,121.600 55.600 C 120.500 55.600,119.600 55.780,119.600 56.000 C 119.600 56.220,118.700 56.400,117.600 56.400 C 116.089 56.400,115.600 56.547,115.600 57.000 C 115.600 57.453,115.111 57.600,113.600 57.600 C 112.500 57.600,111.600 57.780,111.600 58.000 C 111.600 58.220,110.880 58.400,110.000 58.400 C 108.844 58.400,108.400 58.567,108.400 59.000 C 108.400 59.453,107.911 59.600,106.400 59.600 C 105.300 59.600,104.400 59.780,104.400 60.000 C 104.400 60.220,103.950 60.400,103.400 60.400 C 102.778 60.400,102.400 60.627,102.400 61.000 C 102.400 61.453,101.911 61.600,100.400 61.600 C 99.300 61.600,98.400 61.780,98.400 62.000 C 98.400 62.220,97.770 62.400,97.000 62.400 C 96.022 62.400,95.600 62.581,95.600 63.000 C 95.600 63.433,95.156 63.600,94.000 63.600 C 93.120 63.600,92.400 63.780,92.400 64.000 C 92.400 64.220,91.950 64.400,91.400 64.400 C 90.778 64.400,90.400 64.627,90.400 65.000 C 90.400 65.419,89.978 65.600,89.000 65.600 C 88.230 65.600,87.600 65.780,87.600 66.000 C 87.600 66.220,86.880 66.400,86.000 66.400 C 84.844 66.400,84.400 66.567,84.400 67.000 C 84.400 67.419,83.978 67.600,83.000 67.600 C 82.230 67.600,81.600 67.780,81.600 68.000 C 81.600 68.220,81.150 68.400,80.600 68.400 C 79.978 68.400,79.600 68.627,79.600 69.000 C 79.600 69.373,79.222 69.600,78.600 69.600 C 78.050 69.600,77.600 69.780,77.600 70.000 C 77.600 70.220,76.880 70.400,76.000 70.400 C 74.844 70.400,74.400 70.567,74.400 71.000 C 74.400 71.373,74.022 71.600,73.400 71.600 C 72.850 71.600,72.400 71.780,72.400 72.000 C 72.400 72.220,71.770 72.400,71.000 72.400 C 70.022 72.400,69.600 72.581,69.600 73.000 C 69.600 73.373,69.222 73.600,68.600 73.600 C 68.050 73.600,67.600 73.780,67.600 74.000 C 67.600 74.220,67.150 74.400,66.600 74.400 C 65.978 74.400,65.600 74.627,65.600 75.000 C 65.600 75.373,65.222 75.600,64.600 75.600 C 64.050 75.600,63.600 75.780,63.600 76.000 C 63.600 76.220,63.330 76.400,63.000 76.400 C 62.670 76.400,62.400 76.593,62.400 76.829 C 62.400 77.382,61.382 78.400,60.829 78.400 C 60.593 78.400,60.400 78.850,60.400 79.400 C 60.400 79.950,60.220 80.400,60.000 80.400 C 59.780 80.400,59.600 80.670,59.600 81.000 C 59.600 81.330,59.330 81.600,59.000 81.600 C 58.660 81.600,58.400 81.959,58.400 82.429 C 58.400 83.314,57.534 84.400,56.829 84.400 C 56.593 84.400,56.400 84.850,56.400 85.400 C 56.400 85.950,56.220 86.400,56.000 86.400 C 55.780 86.400,55.600 86.850,55.600 87.400 C 55.600 88.022,55.373 88.400,55.000 88.400 C 54.670 88.400,54.400 88.670,54.400 89.000 C 54.400 89.330,54.220 89.600,54.000 89.600 C 53.780 89.600,53.600 90.050,53.600 90.600 C 53.600 91.222,53.373 91.600,53.000 91.600 C 52.660 91.600,52.400 91.959,52.400 92.429 C 52.400 93.314,51.534 94.400,50.829 94.400 C 50.593 94.400,50.400 94.850,50.400 95.400 C 50.400 95.950,50.220 96.400,50.000 96.400 C 49.780 96.400,49.600 96.850,49.600 97.400 C 49.600 98.022,49.373 98.400,49.000 98.400 C 48.670 98.400,48.400 98.670,48.400 99.000 C 48.400 99.330,48.220 99.600,48.000 99.600 C 47.780 99.600,47.600 100.050,47.600 100.600 C 47.600 101.222,47.373 101.600,47.000 101.600 C 46.627 101.600,46.400 101.978,46.400 102.600 C 46.400 103.150,46.220 103.600,46.000 103.600 C 45.780 103.600,45.600 104.050,45.600 104.600 C 45.600 105.222,45.373 105.600,45.000 105.600 C 44.627 105.600,44.400 105.978,44.400 106.600 C 44.400 107.150,44.220 107.600,44.000 107.600 C 43.780 107.600,43.600 108.050,43.600 108.600 C 43.600 109.150,43.407 109.600,43.171 109.600 C 42.466 109.600,41.600 110.686,41.600 111.571 C 41.600 112.041,41.340 112.400,41.000 112.400 C 40.627 112.400,40.400 112.778,40.400 113.400 C 40.400 113.950,40.220 114.400,40.000 114.400 C 39.780 114.400,39.600 114.850,39.600 115.400 C 39.600 116.022,39.373 116.400,39.000 116.400 C 38.627 116.400,38.400 116.778,38.400 117.400 C 38.400 117.950,38.220 118.400,38.000 118.400 C 37.780 118.400,37.600 118.850,37.600 119.400 C 37.600 120.022,37.373 120.400,37.000 120.400 C 36.627 120.400,36.400 120.778,36.400 121.400 C 36.400 121.950,36.220 122.400,36.000 122.400 C 35.780 122.400,35.600 123.120,35.600 124.000 C 35.600 125.156,35.433 125.600,35.000 125.600 C 34.627 125.600,34.400 125.978,34.400 126.600 C 34.400 127.150,34.220 127.600,34.000 127.600 C 33.780 127.600,33.600 128.050,33.600 128.600 C 33.600 129.222,33.373 129.600,33.000 129.600 C 32.627 129.600,32.400 129.978,32.400 130.600 C 32.400 131.150,32.220 131.600,32.000 131.600 C 31.780 131.600,31.600 132.050,31.600 132.600 C 31.600 133.222,31.373 133.600,31.000 133.600 C 30.581 133.600,30.400 134.022,30.400 135.000 C 30.400 135.770,30.220 136.400,30.000 136.400 C 29.780 136.400,29.600 136.850,29.600 137.400 C 29.600 138.022,29.373 138.400,29.000 138.400 C 28.627 138.400,28.400 138.778,28.400 139.400 C 28.400 139.950,28.220 140.400,28.000 140.400 C 27.780 140.400,27.600 141.120,27.600 142.000 C 27.600 143.156,27.433 143.600,27.000 143.600 C 26.627 143.600,26.400 143.978,26.400 144.600 C 26.400 145.150,26.220 145.600,26.000 145.600 C 25.780 145.600,25.600 146.230,25.600 147.000 C 25.600 147.978,25.419 148.400,25.000 148.400 C 24.627 148.400,24.400 148.778,24.400 149.400 C 24.400 149.950,24.220 150.400,24.000 150.400 C 23.780 150.400,23.600 151.120,23.600 152.000 C 23.600 153.156,23.433 153.600,23.000 153.600 C 22.581 153.600,22.400 154.022,22.400 155.000 C 22.400 155.770,22.220 156.400,22.000 156.400 C 21.780 156.400,21.600 157.120,21.600 158.000 C 21.600 159.156,21.433 159.600,21.000 159.600 C 20.581 159.600,20.400 160.022,20.400 161.000 C 20.400 161.770,20.220 162.400,20.000 162.400 C 19.780 162.400,19.600 162.850,19.600 163.400 C 19.600 164.022,19.373 164.400,19.000 164.400 C 18.567 164.400,18.400 164.844,18.400 166.000 C 18.400 166.880,18.220 167.600,18.000 167.600 C 17.780 167.600,17.600 168.500,17.600 169.600 C 17.600 171.111,17.453 171.600,17.000 171.600 C 16.581 171.600,16.400 172.022,16.400 173.000 C 16.400 173.770,16.220 174.400,16.000 174.400 C 15.780 174.400,15.600 175.120,15.600 176.000 C 15.600 177.156,15.433 177.600,15.000 177.600 C 14.547 177.600,14.400 178.089,14.400 179.600 C 14.400 180.700,14.220 181.600,14.000 181.600 C 13.780 181.600,13.600 182.500,13.600 183.600 C 13.600 185.111,13.453 185.600,13.000 185.600 C 12.547 185.600,12.400 186.089,12.400 187.600 C 12.400 188.700,12.220 189.600,12.000 189.600 C 11.780 189.600,11.600 190.500,11.600 191.600 C 11.600 193.111,11.453 193.600,11.000 193.600 C 10.547 193.600,10.400 194.089,10.400 195.600 C 10.400 196.700,10.220 197.600,10.000 197.600 C 9.778 197.600,9.600 198.667,9.600 200.000 C 9.600 201.867,9.467 202.400,9.000 202.400 C 8.528 202.400,8.400 202.956,8.400 205.000 C 8.400 206.467,8.226 207.600,8.000 207.600 C 7.769 207.600,7.600 208.867,7.600 210.600 C 7.600 213.000,7.480 213.600,7.000 213.600 C 6.520 213.600,6.400 214.200,6.400 216.600 C 6.400 218.333,6.231 219.600,6.000 219.600 C 5.765 219.600,5.600 221.000,5.600 223.000 C 5.600 225.756,5.486 226.400,5.000 226.400 C 4.501 226.400,4.400 227.178,4.400 231.000 C 4.400 233.800,4.243 235.600,4.000 235.600 C 3.750 235.600,3.600 238.000,3.600 242.000 C 3.600 247.422,3.508 248.400,3.000 248.400 C 2.474 248.400,2.400 251.111,2.400 270.400 C 2.400 289.689,2.474 292.400,3.000 292.400 C 3.510 292.400,3.600 293.444,3.600 299.400 C 3.600 303.800,3.749 306.400,4.000 306.400 C 4.220 306.400,4.400 306.670,4.400 307.000 C 4.400 307.373,4.778 307.600,5.400 307.600 C 5.950 307.600,6.400 307.780,6.400 308.000 C 6.400 308.220,6.670 308.400,7.000 308.400 C 7.330 308.400,7.600 308.593,7.600 308.829 C 7.600 309.534,8.686 310.400,9.571 310.400 C 10.041 310.400,10.400 310.660,10.400 311.000 C 10.400 311.330,10.670 311.600,11.000 311.600 C 11.330 311.600,11.600 311.780,11.600 312.000 C 11.600 312.220,12.050 312.400,12.600 312.400 C 13.150 312.400,13.600 312.593,13.600 312.829 C 13.600 313.534,14.686 314.400,15.571 314.400 C 16.041 314.400,16.400 314.660,16.400 315.000 C 16.400 315.330,16.670 315.600,17.000 315.600 C 17.330 315.600,17.600 315.780,17.600 316.000 C 17.600 316.220,18.050 316.400,18.600 316.400 C 19.150 316.400,19.600 316.593,19.600 316.829 C 19.600 317.382,20.618 318.400,21.171 318.400 C 21.407 318.400,21.600 318.670,21.600 319.000 C 21.600 319.373,21.978 319.600,22.600 319.600 C 23.150 319.600,23.600 319.780,23.600 320.000 C 23.600 320.220,24.050 320.400,24.600 320.400 C 25.150 320.400,25.600 320.593,25.600 320.829 C 25.600 321.534,26.686 322.400,27.571 322.400 C 28.041 322.400,28.400 322.660,28.400 323.000 C 28.400 323.330,28.670 323.600,29.000 323.600 C 29.330 323.600,29.600 323.780,29.600 324.000 C 29.600 324.220,30.050 324.400,30.600 324.400 C 31.222 324.400,31.600 324.627,31.600 325.000 C 31.600 325.340,31.959 325.600,32.429 325.600 C 33.314 325.600,34.400 326.466,34.400 327.171 C 34.400 327.407,34.850 327.600,35.400 327.600 C 35.950 327.600,36.400 327.780,36.400 328.000 C 36.400 328.220,36.850 328.400,37.400 328.400 C 38.022 328.400,38.400 328.627,38.400 329.000 C 38.400 329.373,38.778 329.600,39.400 329.600 C 39.950 329.600,40.400 329.780,40.400 330.000 C 40.400 330.220,40.670 330.400,41.000 330.400 C 41.330 330.400,41.600 330.670,41.600 331.000 C 41.600 331.373,41.978 331.600,42.600 331.600 C 43.150 331.600,43.600 331.780,43.600 332.000 C 43.600 332.220,44.050 332.400,44.600 332.400 C 45.222 332.400,45.600 332.627,45.600 333.000 C 45.600 333.373,45.978 333.600,46.600 333.600 C 47.150 333.600,47.600 333.780,47.600 334.000 C 47.600 334.220,48.050 334.400,48.600 334.400 C 49.150 334.400,49.600 334.593,49.600 334.829 C 49.600 335.534,50.686 336.400,51.571 336.400 C 52.041 336.400,52.400 336.660,52.400 337.000 C 52.400 337.373,52.778 337.600,53.400 337.600 C 53.950 337.600,54.400 337.780,54.400 338.000 C 54.400 338.220,55.120 338.400,56.000 338.400 C 56.880 338.400,57.600 338.593,57.600 338.829 C 57.600 339.683,58.774 340.400,60.171 340.400 C 61.175 340.400,61.600 340.579,61.600 341.000 C 61.600 341.373,61.978 341.600,62.600 341.600 C 63.150 341.600,63.600 341.780,63.600 342.000 C 63.600 342.220,64.050 342.400,64.600 342.400 C 65.222 342.400,65.600 342.627,65.600 343.000 C 65.600 343.373,65.978 343.600,66.600 343.600 C 67.150 343.600,67.600 343.780,67.600 344.000 C 67.600 344.220,68.050 344.400,68.600 344.400 C 69.222 344.400,69.600 344.627,69.600 345.000 C 69.600 345.419,70.022 345.600,71.000 345.600 C 71.770 345.600,72.400 345.780,72.400 346.000 C 72.400 346.220,72.850 346.400,73.400 346.400 C 74.022 346.400,74.400 346.627,74.400 347.000 C 74.400 347.433,74.844 347.600,76.000 347.600 C 76.880 347.600,77.600 347.780,77.600 348.000 C 77.600 348.220,78.050 348.400,78.600 348.400 C 79.222 348.400,79.600 348.627,79.600 349.000 C 79.600 349.373,79.978 349.600,80.600 349.600 C 81.150 349.600,81.600 349.780,81.600 350.000 C 81.600 350.220,82.230 350.400,83.000 350.400 C 83.978 350.400,84.400 350.581,84.400 351.000 C 84.400 351.433,84.844 351.600,86.000 351.600 C 86.880 351.600,87.600 351.780,87.600 352.000 C 87.600 352.220,88.230 352.400,89.000 352.400 C 89.978 352.400,90.400 352.581,90.400 353.000 C 90.400 353.373,90.778 353.600,91.400 353.600 C 91.950 353.600,92.400 353.780,92.400 354.000 C 92.400 354.220,93.120 354.400,94.000 354.400 C 95.156 354.400,95.600 354.567,95.600 355.000 C 95.600 355.419,96.022 355.600,97.000 355.600 C 97.770 355.600,98.400 355.780,98.400 356.000 C 98.400 356.220,99.300 356.400,100.400 356.400 C 101.911 356.400,102.400 356.547,102.400 357.000 C 102.400 357.433,102.844 357.600,104.000 357.600 C 105.440 357.600,105.600 357.500,105.600 356.600 C 105.600 356.050,105.780 355.600,106.000 355.600 C 106.220 355.600,106.400 355.330,106.400 355.000 C 106.400 354.670,106.670 354.400,107.000 354.400 C 107.340 354.400,107.600 354.041,107.600 353.571 C 107.600 352.686,108.466 351.600,109.171 351.600 C 109.407 351.600,109.600 351.150,109.600 350.600 C 109.600 350.050,109.780 349.600,110.000 349.600 C 110.220 349.600,110.400 349.330,110.400 349.000 C 110.400 348.670,110.593 348.400,110.829 348.400 C 111.534 348.400,112.400 347.314,112.400 346.429 C 112.400 345.959,112.660 345.600,113.000 345.600 C 113.373 345.600,113.600 345.222,113.600 344.600 C 113.600 344.050,113.780 343.600,114.000 343.600 C 114.220 343.600,114.400 343.330,114.400 343.000 C 114.400 342.670,114.670 342.400,115.000 342.400 C 115.373 342.400,115.600 342.022,115.600 341.400 C 115.600 340.850,115.780 340.400,116.000 340.400 C 116.220 340.400,116.400 339.950,116.400 339.400 C 116.400 338.850,116.593 338.400,116.829 338.400 C 117.534 338.400,118.400 337.314,118.400 336.429 C 118.400 335.959,118.660 335.600,119.000 335.600 C 119.373 335.600,119.600 335.222,119.600 334.600 C 119.600 334.050,119.780 333.600,120.000 333.600 C 120.220 333.600,120.400 333.330,120.400 333.000 C 120.400 332.670,120.670 332.400,121.000 332.400 C 121.373 332.400,121.600 332.022,121.600 331.400 C 121.600 330.850,121.780 330.400,122.000 330.400 C 122.220 330.400,122.400 329.950,122.400 329.400 C 122.400 328.778,122.627 328.400,123.000 328.400 C 123.373 328.400,123.600 328.022,123.600 327.400 C 123.600 326.850,123.780 326.400,124.000 326.400 C 124.220 326.400,124.400 325.950,124.400 325.400 C 124.400 324.778,124.627 324.400,125.000 324.400 C 125.453 324.400,125.600 323.911,125.600 322.400 L 125.600 320.400 124.000 320.400 C 123.120 320.400,122.400 320.220,122.400 320.000 C 122.400 319.780,121.950 319.600,121.400 319.600 C 120.778 319.600,120.400 319.373,120.400 319.000 C 120.400 318.581,119.978 318.400,119.000 318.400 C 118.230 318.400,117.600 318.220,117.600 318.000 C 117.600 317.780,117.150 317.600,116.600 317.600 C 115.978 317.600,115.600 317.373,115.600 317.000 C 115.600 316.627,115.222 316.400,114.600 316.400 C 114.050 316.400,113.600 316.220,113.600 316.000 C 113.600 315.780,113.150 315.600,112.600 315.600 C 111.978 315.600,111.600 315.373,111.600 315.000 C 111.600 314.627,111.222 314.400,110.600 314.400 C 110.050 314.400,109.600 314.220,109.600 314.000 C 109.600 313.780,109.150 313.600,108.600 313.600 C 107.978 313.600,107.600 313.373,107.600 313.000 C 107.600 312.579,107.175 312.400,106.171 312.400 C 104.774 312.400,103.600 311.683,103.600 310.829 C 103.600 310.593,103.150 310.400,102.600 310.400 C 102.050 310.400,101.600 310.220,101.600 310.000 C 101.600 309.780,101.150 309.600,100.600 309.600 C 99.978 309.600,99.600 309.373,99.600 309.000 C 99.600 308.627,99.222 308.400,98.600 308.400 C 98.050 308.400,97.600 308.220,97.600 308.000 C 97.600 307.780,97.330 307.600,97.000 307.600 C 96.670 307.600,96.400 307.330,96.400 307.000 C 96.400 306.660,96.041 306.400,95.571 306.400 C 94.686 306.400,93.600 305.534,93.600 304.829 C 93.600 304.593,93.973 304.400,94.429 304.400 C 95.314 304.400,96.400 303.534,96.400 302.829 C 96.400 302.593,96.593 302.400,96.829 302.400 C 97.382 302.400,98.400 301.382,98.400 300.829 C 98.400 300.593,98.655 300.400,98.967 300.400 C 99.278 300.400,99.638 300.175,99.767 299.900 C 99.953 299.500,100.047 299.500,100.233 299.900 C 100.362 300.175,101.171 300.400,102.033 300.400 C 103.159 300.400,103.600 300.569,103.600 301.000 C 103.600 301.373,103.978 301.600,104.600 301.600 C 105.150 301.600,105.600 301.780,105.600 302.000 C 105.600 302.220,106.050 302.400,106.600 302.400 C 107.222 302.400,107.600 302.627,107.600 303.000 C 107.600 303.419,108.022 303.600,109.000 303.600 C 109.770 303.600,110.400 303.780,110.400 304.000 C 110.400 304.220,110.850 304.400,111.400 304.400 C 112.022 304.400,112.400 304.627,112.400 305.000 C 112.400 305.433,112.844 305.600,114.000 305.600 C 114.880 305.600,115.600 305.780,115.600 306.000 C 115.600 306.220,116.050 306.400,116.600 306.400 C 117.222 306.400,117.600 306.627,117.600 307.000 C 117.600 307.419,118.022 307.600,119.000 307.600 C 119.770 307.600,120.400 307.780,120.400 308.000 C 120.400 308.220,120.850 308.400,121.400 308.400 C 122.022 308.400,122.400 308.627,122.400 309.000 C 122.400 309.453,122.889 309.600,124.400 309.600 C 125.500 309.600,126.400 309.780,126.400 310.000 C 126.400 310.220,127.120 310.400,128.000 310.400 C 129.156 310.400,129.600 310.567,129.600 311.000 C 129.600 311.419,130.022 311.600,131.000 311.600 C 131.770 311.600,132.400 311.780,132.400 312.000 C 132.400 312.220,133.120 312.400,134.000 312.400 C 135.156 312.400,135.600 312.567,135.600 313.000 C 135.600 313.453,136.089 313.600,137.600 313.600 C 138.700 313.600,139.600 313.780,139.600 314.000 C 139.600 314.220,140.230 314.400,141.000 314.400 C 141.978 314.400,142.400 314.581,142.400 315.000 C 142.400 315.472,142.956 315.600,145.000 315.600 C 146.467 315.600,147.600 315.774,147.600 316.000 C 147.600 316.220,148.500 316.400,149.600 316.400 C 151.111 316.400,151.600 316.547,151.600 317.000 C 151.600 317.467,152.133 317.600,154.000 317.600 C 155.333 317.600,156.400 317.778,156.400 318.000 C 156.400 318.226,157.533 318.400,159.000 318.400 C 161.044 318.400,161.600 318.528,161.600 319.000 C 161.600 319.486,162.244 319.600,165.000 319.600 C 167.000 319.600,168.400 319.765,168.400 320.000 C 168.400 320.240,170.000 320.400,172.400 320.400 C 175.689 320.400,176.400 320.507,176.400 321.000 C 176.400 321.507,177.333 321.600,182.400 321.600 C 186.133 321.600,188.400 321.751,188.400 322.000 C 188.400 322.257,192.533 322.400,200.000 322.400 C 207.467 322.400,211.600 322.257,211.600 322.000 C 211.600 321.751,213.867 321.600,217.600 321.600 C 222.667 321.600,223.600 321.507,223.600 321.000 C 223.600 320.507,224.311 320.400,227.600 320.400 C 230.000 320.400,231.600 320.240,231.600 320.000 C 231.600 319.765,233.000 319.600,235.000 319.600 C 237.756 319.600,238.400 319.486,238.400 319.000 C 238.400 318.520,239.000 318.400,241.400 318.400 C 243.133 318.400,244.400 318.231,244.400 318.000 C 244.400 317.780,245.300 317.600,246.400 317.600 C 247.911 317.600,248.400 317.453,248.400 317.000 C 248.400 316.547,248.889 316.400,250.400 316.400 C 251.500 316.400,252.400 316.220,252.400 316.000 C 252.400 315.774,253.533 315.600,255.000 315.600 C 257.044 315.600,257.600 315.472,257.600 315.000 C 257.600 314.581,258.022 314.400,259.000 314.400 C 259.770 314.400,260.400 314.220,260.400 314.000 C 260.400 313.780,261.300 313.600,262.400 313.600 C 263.911 313.600,264.400 313.453,264.400 313.000 C 264.400 312.567,264.844 312.400,266.000 312.400 C 266.880 312.400,267.600 312.220,267.600 312.000 C 267.600 311.780,268.230 311.600,269.000 311.600 C 269.978 311.600,270.400 311.419,270.400 311.000 C 270.400 310.567,270.844 310.400,272.000 310.400 C 272.880 310.400,273.600 310.220,273.600 310.000 C 273.600 309.780,274.230 309.600,275.000 309.600 C 275.978 309.600,276.400 309.419,276.400 309.000 C 276.400 308.567,276.844 308.400,278.000 308.400 C 278.880 308.400,279.600 308.220,279.600 308.000 C 279.600 307.780,280.230 307.600,281.000 307.600 C 281.978 307.600,282.400 307.419,282.400 307.000 C 282.400 306.627,282.778 306.400,283.400 306.400 C 283.950 306.400,284.400 306.220,284.400 306.000 C 284.400 305.780,285.120 305.600,286.000 305.600 C 287.156 305.600,287.600 305.433,287.600 305.000 C 287.600 304.627,287.978 304.400,288.600 304.400 C 289.150 304.400,289.600 304.220,289.600 304.000 C 289.600 303.780,290.050 303.600,290.600 303.600 C 291.222 303.600,291.600 303.373,291.600 303.000 C 291.600 302.581,292.022 302.400,293.000 302.400 C 293.770 302.400,294.400 302.220,294.400 302.000 C 294.400 301.780,294.850 301.600,295.400 301.600 C 296.022 301.600,296.400 301.373,296.400 301.000 C 296.400 300.627,296.778 300.400,297.400 300.400 C 297.950 300.400,298.400 300.220,298.400 300.000 C 298.400 299.780,298.593 299.600,298.829 299.600 C 299.382 299.600,300.400 300.618,300.400 301.171 C 300.400 301.407,300.850 301.600,301.400 301.600 C 301.950 301.600,302.400 301.780,302.400 302.000 C 302.400 302.220,302.670 302.400,303.000 302.400 C 303.330 302.400,303.600 302.593,303.600 302.829 C 303.600 303.382,304.618 304.400,305.171 304.400 C 305.407 304.400,305.600 304.850,305.600 305.400 C 305.600 306.200,305.400 306.400,304.600 306.400 C 303.978 306.400,303.600 306.627,303.600 307.000 C 303.600 307.330,303.330 307.600,303.000 307.600 C 302.670 307.600,302.400 307.780,302.400 308.000 C 302.400 308.220,301.950 308.400,301.400 308.400 C 300.778 308.400,300.400 308.627,300.400 309.000 C 300.400 309.373,300.022 309.600,299.400 309.600 C 298.850 309.600,298.400 309.780,298.400 310.000 C 298.400 310.220,297.950 310.400,297.400 310.400 C 296.778 310.400,296.400 310.627,296.400 311.000 C 296.400 311.373,296.022 311.600,295.400 311.600 C 294.850 311.600,294.400 311.780,294.400 312.000 C 294.400 312.220,293.950 312.400,293.400 312.400 C 292.778 312.400,292.400 312.627,292.400 313.000 C 292.400 313.373,292.022 313.600,291.400 313.600 C 290.850 313.600,290.400 313.780,290.400 314.000 C 290.400 314.220,289.950 314.400,289.400 314.400 C 288.778 314.400,288.400 314.627,288.400 315.000 C 288.400 315.373,288.022 315.600,287.400 315.600 C 286.850 315.600,286.400 315.780,286.400 316.000 C 286.400 316.220,285.950 316.400,285.400 316.400 C 284.778 316.400,284.400 316.627,284.400 317.000 C 284.400 317.419,283.978 317.600,283.000 317.600 C 282.230 317.600,281.600 317.780,281.600 318.000 C 281.600 318.220,281.150 318.400,280.600 318.400 C 279.978 318.400,279.600 318.627,279.600 319.000 C 279.600 319.433,279.156 319.600,278.000 319.600 C 277.120 319.600,276.400 319.780,276.400 320.000 C 276.400 320.220,275.950 320.400,275.400 320.400 C 274.778 320.400,274.400 320.627,274.400 321.000 C 274.400 321.330,274.220 321.600,274.000 321.600 C 273.780 321.600,273.600 322.050,273.600 322.600 C 273.600 323.150,273.780 323.600,274.000 323.600 C 274.220 323.600,274.400 324.050,274.400 324.600 C 274.400 325.222,274.627 325.600,275.000 325.600 C 275.340 325.600,275.600 325.959,275.600 326.429 C 275.600 327.314,276.466 328.400,277.171 328.400 C 277.407 328.400,277.600 328.850,277.600 329.400 C 277.600 329.950,277.780 330.400,278.000 330.400 C 278.220 330.400,278.400 330.850,278.400 331.400 C 278.400 332.022,278.627 332.400,279.000 332.400 C 279.373 332.400,279.600 332.778,279.600 333.400 C 279.600 333.950,279.780 334.400,280.000 334.400 C 280.220 334.400,280.400 334.850,280.400 335.400 C 280.400 336.022,280.627 336.400,281.000 336.400 C 281.330 336.400,281.600 336.670,281.600 337.000 C 281.600 337.330,281.780 337.600,282.000 337.600 C 282.220 337.600,282.400 338.050,282.400 338.600 C 282.400 339.222,282.627 339.600,283.000 339.600 C 283.340 339.600,283.600 339.959,283.600 340.429 C 283.600 341.314,284.466 342.400,285.171 342.400 C 285.407 342.400,285.600 342.850,285.600 343.400 C 285.600 343.950,285.780 344.400,286.000 344.400 C 286.220 344.400,286.400 344.850,286.400 345.400 C 286.400 346.022,286.627 346.400,287.000 346.400 C 287.330 346.400,287.600 346.670,287.600 347.000 C 287.600 347.330,287.780 347.600,288.000 347.600 C 288.220 347.600,288.400 348.050,288.400 348.600 C 288.400 349.150,288.593 349.600,288.829 349.600 C 289.534 349.600,290.400 350.686,290.400 351.571 C 290.400 352.041,290.660 352.400,291.000 352.400 C 291.330 352.400,291.600 352.670,291.600 353.000 C 291.600 353.330,291.780 353.600,292.000 353.600 C 292.220 353.600,292.400 354.050,292.400 354.600 C 292.400 355.150,292.593 355.600,292.829 355.600 C 293.382 355.600,294.400 356.618,294.400 357.171 C 294.400 357.407,295.120 357.600,296.000 357.600 C 297.156 357.600,297.600 357.433,297.600 357.000 C 297.600 356.581,298.022 356.400,299.000 356.400 C 299.770 356.400,300.400 356.220,300.400 356.000 C 300.400 355.780,301.300 355.600,302.400 355.600 C 303.911 355.600,304.400 355.453,304.400 355.000 C 304.400 354.567,304.844 354.400,306.000 354.400 C 306.880 354.400,307.600 354.220,307.600 354.000 C 307.600 353.780,308.050 353.600,308.600 353.600 C 309.222 353.600,309.600 353.373,309.600 353.000 C 309.600 352.581,310.022 352.400,311.000 352.400 C 311.770 352.400,312.400 352.220,312.400 352.000 C 312.400 351.780,313.120 351.600,314.000 351.600 C 315.156 351.600,315.600 351.433,315.600 351.000 C 315.600 350.627,315.978 350.400,316.600 350.400 C 317.150 350.400,317.600 350.220,317.600 350.000 C 317.600 349.780,318.230 349.600,319.000 349.600 C 319.978 349.600,320.400 349.419,320.400 349.000 C 320.400 348.627,320.778 348.400,321.400 348.400 C 321.950 348.400,322.400 348.220,322.400 348.000 C 322.400 347.780,323.120 347.600,324.000 347.600 C 325.156 347.600,325.600 347.433,325.600 347.000 C 325.600 346.627,325.978 346.400,326.600 346.400 C 327.150 346.400,327.600 346.220,327.600 346.000 C 327.600 345.780,328.050 345.600,328.600 345.600 C 329.222 345.600,329.600 345.373,329.600 345.000 C 329.600 344.627,329.978 344.400,330.600 344.400 C 331.150 344.400,331.600 344.220,331.600 344.000 C 331.600 343.780,332.230 343.600,333.000 343.600 C 333.978 343.600,334.400 343.419,334.400 343.000 C 334.400 342.627,334.778 342.400,335.400 342.400 C 335.950 342.400,336.400 342.220,336.400 342.000 C 336.400 341.780,336.850 341.600,337.400 341.600 C 338.022 341.600,338.400 341.373,338.400 341.000 C 338.400 340.627,338.778 340.400,339.400 340.400 C 339.950 340.400,340.400 340.220,340.400 340.000 C 340.400 339.780,340.850 339.600,341.400 339.600 C 342.022 339.600,342.400 339.373,342.400 339.000 C 342.400 338.627,342.778 338.400,343.400 338.400 C 343.950 338.400,344.400 338.220,344.400 338.000 C 344.400 337.780,344.850 337.600,345.400 337.600 C 346.022 337.600,346.400 337.373,346.400 337.000 C 346.400 336.627,346.778 336.400,347.400 336.400 C 347.950 336.400,348.400 336.220,348.400 336.000 C 348.400 335.780,348.850 335.600,349.400 335.600 C 350.022 335.600,350.400 335.373,350.400 335.000 C 350.400 334.627,350.778 334.400,351.400 334.400 C 351.950 334.400,352.400 334.220,352.400 334.000 C 352.400 333.780,352.850 333.600,353.400 333.600 C 354.022 333.600,354.400 333.373,354.400 333.000 C 354.400 332.627,354.778 332.400,355.400 332.400 C 355.950 332.400,356.400 332.220,356.400 332.000 C 356.400 331.780,356.850 331.600,357.400 331.600 C 358.022 331.600,358.400 331.373,358.400 331.000 C 358.400 330.670,358.670 330.400,359.000 330.400 C 359.330 330.400,359.600 330.220,359.600 330.000 C 359.600 329.780,360.050 329.600,360.600 329.600 C 361.222 329.600,361.600 329.373,361.600 329.000 C 361.600 328.660,361.959 328.400,362.429 328.400 C 363.314 328.400,364.400 327.534,364.400 326.829 C 364.400 326.593,364.850 326.400,365.400 326.400 C 365.950 326.400,366.400 326.220,366.400 326.000 C 366.400 325.780,366.850 325.600,367.400 325.600 C 368.022 325.600,368.400 325.373,368.400 325.000 C 368.400 324.670,368.670 324.400,369.000 324.400 C 369.330 324.400,369.600 324.220,369.600 324.000 C 369.600 323.780,370.050 323.600,370.600 323.600 C 371.222 323.600,371.600 323.373,371.600 323.000 C 371.600 322.660,371.959 322.400,372.429 322.400 C 373.314 322.400,374.400 321.534,374.400 320.829 C 374.400 320.593,374.850 320.400,375.400 320.400 C 375.950 320.400,376.400 320.220,376.400 320.000 C 376.400 319.780,376.670 319.600,377.000 319.600 C 377.330 319.600,377.600 319.330,377.600 319.000 C 377.600 318.660,377.959 318.400,378.429 318.400 C 379.314 318.400,380.400 317.534,380.400 316.829 C 380.400 316.593,380.850 316.400,381.400 316.400 C 381.950 316.400,382.400 316.220,382.400 316.000 C 382.400 315.780,382.670 315.600,383.000 315.600 C 383.330 315.600,383.600 315.330,383.600 315.000 C 383.600 314.660,383.959 314.400,384.429 314.400 C 385.314 314.400,386.400 313.534,386.400 312.829 C 386.400 312.593,386.670 312.400,387.000 312.400 C 387.330 312.400,387.600 312.220,387.600 312.000 C 387.600 311.780,388.050 311.600,388.600 311.600 C 389.150 311.600,389.600 311.407,389.600 311.171 C 389.600 310.466,390.686 309.600,391.571 309.600 C 392.041 309.600,392.400 309.340,392.400 309.000 C 392.400 308.670,392.593 308.400,392.829 308.400 C 393.382 308.400,394.400 307.382,394.400 306.829 C 394.400 306.593,394.670 306.400,395.000 306.400 C 395.453 306.400,395.600 305.911,395.600 304.400 C 395.600 303.300,395.780 302.400,396.000 302.400 C 396.253 302.400,396.400 299.467,396.400 294.400 C 396.400 287.556,396.487 286.400,397.000 286.400 C 397.523 286.400,397.600 284.422,397.600 271.000 C 397.600 257.578,397.523 255.600,397.000 255.600 C 396.487 255.600,396.400 254.444,396.400 247.600 C 396.400 242.533,396.253 239.600,396.000 239.600 C 395.755 239.600,395.600 237.667,395.600 234.600 C 395.600 230.422,395.501 229.600,395.000 229.600 C 394.507 229.600,394.400 228.889,394.400 225.600 C 394.400 223.200,394.240 221.600,394.000 221.600 C 393.769 221.600,393.600 220.333,393.600 218.600 C 393.600 216.200,393.480 215.600,393.000 215.600 C 392.520 215.600,392.400 215.000,392.400 212.600 C 392.400 210.867,392.231 209.600,392.000 209.600 C 391.774 209.600,391.600 208.467,391.600 207.000 C 391.600 204.956,391.472 204.400,391.000 204.400 C 390.533 204.400,390.400 203.867,390.400 202.000 C 390.400 200.667,390.222 199.600,390.000 199.600 C 389.780 199.600,389.600 198.700,389.600 197.600 C 389.600 196.089,389.453 195.600,389.000 195.600 C 388.528 195.600,388.400 195.044,388.400 193.000 C 388.400 191.533,388.226 190.400,388.000 190.400 C 387.780 190.400,387.600 189.500,387.600 188.400 C 387.600 186.889,387.453 186.400,387.000 186.400 C 386.547 186.400,386.400 185.911,386.400 184.400 C 386.400 183.300,386.220 182.400,386.000 182.400 C 385.780 182.400,385.600 181.500,385.600 180.400 C 385.600 178.889,385.453 178.400,385.000 178.400 C 384.581 178.400,384.400 177.978,384.400 177.000 C 384.400 176.230,384.220 175.600,384.000 175.600 C 383.780 175.600,383.600 174.880,383.600 174.000 C 383.600 172.844,383.433 172.400,383.000 172.400 C 382.547 172.400,382.400 171.911,382.400 170.400 C 382.400 169.300,382.220 168.400,382.000 168.400 C 381.780 168.400,381.600 167.770,381.600 167.000 C 381.600 166.022,381.419 165.600,381.000 165.600 C 380.567 165.600,380.400 165.156,380.400 164.000 C 380.400 163.120,380.220 162.400,380.000 162.400 C 379.780 162.400,379.600 161.770,379.600 161.000 C 379.600 160.022,379.419 159.600,379.000 159.600 C 378.567 159.600,378.400 159.156,378.400 158.000 C 378.400 157.120,378.220 156.400,378.000 156.400 C 377.780 156.400,377.600 155.950,377.600 155.400 C 377.600 154.778,377.373 154.400,377.000 154.400 C 376.581 154.400,376.400 153.978,376.400 153.000 C 376.400 152.230,376.220 151.600,376.000 151.600 C 375.780 151.600,375.600 150.880,375.600 150.000 C 375.600 148.844,375.433 148.400,375.000 148.400 C 374.627 148.400,374.400 148.022,374.400 147.400 C 374.400 146.850,374.220 146.400,374.000 146.400 C 373.780 146.400,373.600 145.770,373.600 145.000 C 373.600 144.022,373.419 143.600,373.000 143.600 C 372.627 143.600,372.400 143.222,372.400 142.600 C 372.400 142.050,372.220 141.600,372.000 141.600 C 371.780 141.600,371.600 141.150,371.600 140.600 C 371.600 139.978,371.373 139.600,371.000 139.600 C 370.567 139.600,370.400 139.156,370.400 138.000 C 370.400 137.120,370.220 136.400,370.000 136.400 C 369.780 136.400,369.600 135.950,369.600 135.400 C 369.600 134.778,369.373 134.400,369.000 134.400 C 368.581 134.400,368.400 133.978,368.400 133.000 C 368.400 132.230,368.220 131.600,368.000 131.600 C 367.780 131.600,367.600 131.150,367.600 130.600 C 367.600 129.978,367.373 129.600,367.000 129.600 C 366.627 129.600,366.400 129.222,366.400 128.600 C 366.400 128.050,366.220 127.600,366.000 127.600 C 365.780 127.600,365.600 127.150,365.600 126.600 C 365.600 125.978,365.373 125.600,365.000 125.600 C 364.627 125.600,364.400 125.222,364.400 124.600 C 364.400 124.050,364.220 123.600,364.000 123.600 C 363.780 123.600,363.600 123.150,363.600 122.600 C 363.600 121.978,363.373 121.600,363.000 121.600 C 362.627 121.600,362.400 121.222,362.400 120.600 C 362.400 120.050,362.220 119.600,362.000 119.600 C 361.780 119.600,361.600 119.150,361.600 118.600 C 361.600 117.978,361.373 117.600,361.000 117.600 C 360.627 117.600,360.400 117.222,360.400 116.600 C 360.400 116.050,360.220 115.600,360.000 115.600 C 359.780 115.600,359.600 115.150,359.600 114.600 C 359.600 113.978,359.373 113.600,359.000 113.600 C 358.627 113.600,358.400 113.222,358.400 112.600 C 358.400 112.050,358.220 111.600,358.000 111.600 C 357.780 111.600,357.600 111.150,357.600 110.600 C 357.600 109.978,357.373 109.600,357.000 109.600 C 356.627 109.600,356.400 109.222,356.400 108.600 C 356.400 108.050,356.220 107.600,356.000 107.600 C 355.780 107.600,355.600 107.150,355.600 106.600 C 355.600 105.978,355.373 105.600,355.000 105.600 C 354.627 105.600,354.400 105.222,354.400 104.600 C 354.400 104.050,354.220 103.600,354.000 103.600 C 353.780 103.600,353.600 103.330,353.600 103.000 C 353.600 102.670,353.330 102.400,353.000 102.400 C 352.627 102.400,352.400 102.022,352.400 101.400 C 352.400 100.850,352.220 100.400,352.000 100.400 C 351.780 100.400,351.600 99.950,351.600 99.400 C 351.600 98.850,351.407 98.400,351.171 98.400 C 350.466 98.400,349.600 97.314,349.600 96.429 C 349.600 95.959,349.340 95.600,349.000 95.600 C 348.627 95.600,348.400 95.222,348.400 94.600 C 348.400 94.050,348.220 93.600,348.000 93.600 C 347.780 93.600,347.600 93.330,347.600 93.000 C 347.600 92.670,347.330 92.400,347.000 92.400 C 346.627 92.400,346.400 92.022,346.400 91.400 C 346.400 90.850,346.220 90.400,346.000 90.400 C 345.780 90.400,345.600 89.950,345.600 89.400 C 345.600 88.850,345.407 88.400,345.171 88.400 C 344.466 88.400,343.600 87.314,343.600 86.429 C 343.600 85.959,343.340 85.600,343.000 85.600 C 342.627 85.600,342.400 85.222,342.400 84.600 C 342.400 84.050,342.220 83.600,342.000 83.600 C 341.780 83.600,341.600 83.330,341.600 83.000 C 341.600 82.670,341.330 82.400,341.000 82.400 C 340.660 82.400,340.400 82.041,340.400 81.571 C 340.400 80.686,339.534 79.600,338.829 79.600 C 338.593 79.600,338.400 79.150,338.400 78.600 C 338.400 78.050,338.220 77.600,338.000 77.600 C 337.780 77.600,337.600 77.330,337.600 77.000 C 337.600 76.670,337.330 76.400,337.000 76.400 C 336.670 76.400,336.400 76.220,336.400 76.000 C 336.400 75.780,335.770 75.600,335.000 75.600 C 334.022 75.600,333.600 75.419,333.600 75.000 C 333.600 74.627,333.222 74.400,332.600 74.400 C 332.050 74.400,331.600 74.220,331.600 74.000 C 331.600 73.780,331.150 73.600,330.600 73.600 C 329.978 73.600,329.600 73.373,329.600 73.000 C 329.600 72.627,329.222 72.400,328.600 72.400 C 328.050 72.400,327.600 72.220,327.600 72.000 C 327.600 71.780,326.880 71.600,326.000 71.600 C 324.844 71.600,324.400 71.433,324.400 71.000 C 324.400 70.627,324.022 70.400,323.400 70.400 C 322.850 70.400,322.400 70.220,322.400 70.000 C 322.400 69.780,321.950 69.600,321.400 69.600 C 320.778 69.600,320.400 69.373,320.400 69.000 C 320.400 68.581,319.978 68.400,319.000 68.400 C 318.230 68.400,317.600 68.220,317.600 68.000 C 317.600 67.780,316.880 67.600,316.000 67.600 C 314.844 67.600,314.400 67.433,314.400 67.000 C 314.400 66.627,314.022 66.400,313.400 66.400 C 312.850 66.400,312.400 66.220,312.400 66.000 C 312.400 65.780,311.770 65.600,311.000 65.600 C 310.022 65.600,309.600 65.419,309.600 65.000 C 309.600 64.567,309.156 64.400,308.000 64.400 C 307.120 64.400,306.400 64.220,306.400 64.000 C 306.400 63.780,305.770 63.600,305.000 63.600 C 304.022 63.600,303.600 63.419,303.600 63.000 C 303.600 62.567,303.156 62.400,302.000 62.400 C 301.120 62.400,300.400 62.220,300.400 62.000 C 300.400 61.780,299.770 61.600,299.000 61.600 C 298.022 61.600,297.600 61.419,297.600 61.000 C 297.600 60.567,297.156 60.400,296.000 60.400 C 295.120 60.400,294.400 60.220,294.400 60.000 C 294.400 59.780,293.770 59.600,293.000 59.600 C 292.022 59.600,291.600 59.419,291.600 59.000 C 291.600 58.547,291.111 58.400,289.600 58.400 C 288.500 58.400,287.600 58.220,287.600 58.000 C 287.600 57.780,286.700 57.600,285.600 57.600 C 284.089 57.600,283.600 57.453,283.600 57.000 C 283.600 56.547,283.111 56.400,281.600 56.400 C 280.500 56.400,279.600 56.220,279.600 56.000 C 279.600 55.780,278.880 55.600,278.000 55.600 C 276.844 55.600,276.400 55.433,276.400 55.000 C 276.400 54.533,275.867 54.400,274.000 54.400 C 272.667 54.400,271.600 54.222,271.600 54.000 C 271.600 53.780,270.700 53.600,269.600 53.600 C 268.089 53.600,267.600 53.453,267.600 53.000 C 267.600 52.528,267.044 52.400,265.000 52.400 C 263.533 52.400,262.400 52.226,262.400 52.000 C 262.400 51.778,261.333 51.600,260.000 51.600 C 258.133 51.600,257.600 51.467,257.600 51.000 C 257.600 50.567,257.156 50.400,256.000 50.400 C 254.560 50.400,254.400 50.500,254.400 51.400 C 254.400 51.950,254.220 52.400,254.000 52.400 C 253.780 52.400,253.600 52.850,253.600 53.400 C 253.600 54.022,253.373 54.400,253.000 54.400 C 252.627 54.400,252.400 54.778,252.400 55.400 C 252.400 55.950,252.220 56.400,252.000 56.400 C 251.780 56.400,251.600 56.850,251.600 57.400 C 251.600 58.022,251.373 58.400,251.000 58.400 C 250.627 58.400,250.400 58.778,250.400 59.400 C 250.400 59.950,250.220 60.400,250.000 60.400 C 249.780 60.400,249.600 60.850,249.600 61.400 C 249.600 62.022,249.373 62.400,249.000 62.400 C 248.627 62.400,248.400 62.778,248.400 63.400 C 248.400 63.950,248.220 64.400,248.000 64.400 C 247.780 64.400,247.600 64.850,247.600 65.400 C 247.600 66.022,247.373 66.400,247.000 66.400 C 246.627 66.400,246.400 66.778,246.400 67.400 C 246.400 67.950,246.220 68.400,246.000 68.400 C 245.780 68.400,245.600 69.120,245.600 70.000 C 245.600 71.156,245.433 71.600,245.000 71.600 C 244.670 71.600,244.400 71.780,244.400 72.000 C 244.400 72.220,243.950 72.400,243.400 72.400 C 242.850 72.400,242.400 72.220,242.400 72.000 C 242.400 71.760,240.800 71.600,238.400 71.600 C 235.111 71.600,234.400 71.493,234.400 71.000 C 234.400 70.496,233.533 70.400,229.000 70.400 C 225.667 70.400,223.600 70.247,223.600 70.000 C 223.600 69.744,220.133 69.600,214.000 69.600 C 205.733 69.600,204.400 69.517,204.400 69.000 C 204.400 68.499,203.578 68.400,199.400 68.400 C 195.222 68.400,194.400 68.499,194.400 69.000 C 194.400 69.516,193.089 69.600,185.000 69.600 C 179.000 69.600,175.600 69.745,175.600 70.000 C 175.600 70.245,173.667 70.400,170.600 70.400 C 166.422 70.400,165.600 70.499,165.600 71.000 C 165.600 71.493,164.889 71.600,161.600 71.600 C 159.200 71.600,157.600 71.760,157.600 72.000 C 157.600 72.220,157.150 72.400,156.600 72.400 C 156.050 72.400,155.600 72.220,155.600 72.000 C 155.600 71.780,155.330 71.600,155.000 71.600 C 154.627 71.600,154.400 71.222,154.400 70.600 C 154.400 70.050,154.220 69.600,154.000 69.600 C 153.780 69.600,153.600 69.150,153.600 68.600 C 153.600 67.978,153.373 67.600,153.000 67.600 C 152.567 67.600,152.400 67.156,152.400 66.000 C 152.400 65.120,152.220 64.400,152.000 64.400 C 151.780 64.400,151.600 63.950,151.600 63.400 C 151.600 62.778,151.373 62.400,151.000 62.400 C 150.627 62.400,150.400 62.022,150.400 61.400 C 150.400 60.850,150.220 60.400,150.000 60.400 C 149.780 60.400,149.600 59.950,149.600 59.400 C 149.600 58.778,149.373 58.400,149.000 58.400 C 148.627 58.400,148.400 58.022,148.400 57.400 C 148.400 56.850,148.220 56.400,148.000 56.400 C 147.780 56.400,147.600 55.950,147.600 55.400 C 147.600 54.850,147.407 54.400,147.171 54.400 C 146.466 54.400,145.600 53.314,145.600 52.429 C 145.600 51.959,145.340 51.600,145.000 51.600 C 144.670 51.600,144.400 51.330,144.400 51.000 C 144.400 50.627,144.022 50.400,143.400 50.400 C 142.778 50.400,142.400 50.627,142.400 51.000 M139.600 180.000 C 139.600 180.220,140.500 180.400,141.600 180.400 C 143.111 180.400,143.600 180.547,143.600 181.000 C 143.600 181.419,144.022 181.600,145.000 181.600 C 145.770 181.600,146.400 181.780,146.400 182.000 C 146.400 182.220,146.850 182.400,147.400 182.400 C 148.022 182.400,148.400 182.627,148.400 183.000 C 148.400 183.373,148.778 183.600,149.400 183.600 C 149.950 183.600,150.400 183.780,150.400 184.000 C 150.400 184.220,150.670 184.400,151.000 184.400 C 151.330 184.400,151.600 184.670,151.600 185.000 C 151.600 185.340,151.959 185.600,152.429 185.600 C 153.314 185.600,154.400 186.466,154.400 187.171 C 154.400 187.407,154.593 187.600,154.829 187.600 C 155.382 187.600,156.400 188.618,156.400 189.171 C 156.400 189.407,156.593 189.600,156.829 189.600 C 157.382 189.600,158.400 190.618,158.400 191.171 C 158.400 191.407,158.593 191.600,158.829 191.600 C 159.382 191.600,160.400 192.618,160.400 193.171 C 160.400 193.407,160.593 193.600,160.829 193.600 C 161.534 193.600,162.400 194.686,162.400 195.571 C 162.400 196.041,162.660 196.400,163.000 196.400 C 163.373 196.400,163.600 196.778,163.600 197.400 C 163.600 197.950,163.780 198.400,164.000 198.400 C 164.220 198.400,164.400 198.850,164.400 199.400 C 164.400 200.022,164.627 200.400,165.000 200.400 C 165.373 200.400,165.600 200.778,165.600 201.400 C 165.600 201.950,165.780 202.400,166.000 202.400 C 166.220 202.400,166.400 203.120,166.400 204.000 C 166.400 205.156,166.567 205.600,167.000 205.600 C 167.419 205.600,167.600 206.022,167.600 207.000 C 167.600 207.770,167.780 208.400,168.000 208.400 C 168.226 208.400,168.400 209.533,168.400 211.000 C 168.400 213.044,168.528 213.600,169.000 213.600 C 169.504 213.600,169.600 214.467,169.600 219.000 C 169.600 223.533,169.504 224.400,169.000 224.400 C 168.528 224.400,168.400 224.956,168.400 227.000 C 168.400 228.467,168.226 229.600,168.000 229.600 C 167.780 229.600,167.600 230.500,167.600 231.600 C 167.600 233.111,167.453 233.600,167.000 233.600 C 166.581 233.600,166.400 234.022,166.400 235.000 C 166.400 235.770,166.220 236.400,166.000 236.400 C 165.780 236.400,165.600 236.850,165.600 237.400 C 165.600 238.022,165.373 238.400,165.000 238.400 C 164.627 238.400,164.400 238.778,164.400 239.400 C 164.400 239.950,164.220 240.400,164.000 240.400 C 163.780 240.400,163.600 240.670,163.600 241.000 C 163.600 241.330,163.330 241.600,163.000 241.600 C 162.627 241.600,162.400 241.978,162.400 242.600 C 162.400 243.150,162.220 243.600,162.000 243.600 C 161.780 243.600,161.600 244.050,161.600 244.600 C 161.600 245.150,161.407 245.600,161.171 245.600 C 160.618 245.600,159.600 246.618,159.600 247.171 C 159.600 247.407,159.407 247.600,159.171 247.600 C 158.618 247.600,157.600 248.618,157.600 249.171 C 157.600 249.407,157.407 249.600,157.171 249.600 C 156.618 249.600,155.600 250.618,155.600 251.171 C 155.600 251.407,155.330 251.600,155.000 251.600 C 154.670 251.600,154.400 251.780,154.400 252.000 C 154.400 252.220,153.950 252.400,153.400 252.400 C 152.850 252.400,152.400 252.593,152.400 252.829 C 152.400 253.534,151.314 254.400,150.429 254.400 C 149.959 254.400,149.600 254.660,149.600 255.000 C 149.600 255.373,149.222 255.600,148.600 255.600 C 148.050 255.600,147.600 255.780,147.600 256.000 C 147.600 256.220,147.150 256.400,146.600 256.400 C 145.978 256.400,145.600 256.627,145.600 257.000 C 145.600 257.373,145.222 257.600,144.600 257.600 C 144.050 257.600,143.600 257.780,143.600 258.000 C 143.600 258.226,142.467 258.400,141.000 258.400 C 138.956 258.400,138.400 258.528,138.400 259.000 C 138.400 259.493,137.689 259.600,134.400 259.600 C 131.111 259.600,130.400 259.493,130.400 259.000 C 130.400 258.533,129.867 258.400,128.000 258.400 C 126.667 258.400,125.600 258.222,125.600 258.000 C 125.600 257.780,125.150 257.600,124.600 257.600 C 123.978 257.600,123.600 257.373,123.600 257.000 C 123.600 256.627,123.222 256.400,122.600 256.400 C 122.050 256.400,121.600 256.220,121.600 256.000 C 121.600 255.780,121.150 255.600,120.600 255.600 C 119.978 255.600,119.600 255.373,119.600 255.000 C 119.600 254.627,119.222 254.400,118.600 254.400 C 118.050 254.400,117.600 254.220,117.600 254.000 C 117.600 253.780,117.330 253.600,117.000 253.600 C 116.670 253.600,116.400 253.330,116.400 253.000 C 116.400 252.660,116.041 252.400,115.571 252.400 C 114.686 252.400,113.600 251.534,113.600 250.829 C 113.600 250.593,113.407 250.400,113.171 250.400 C 112.618 250.400,111.600 249.382,111.600 248.829 C 111.600 248.593,111.407 248.400,111.171 248.400 C 110.618 248.400,109.600 247.382,109.600 246.829 C 109.600 246.593,109.407 246.400,109.171 246.400 C 108.466 246.400,107.600 245.314,107.600 244.429 C 107.600 243.959,107.340 243.600,107.000 243.600 C 106.670 243.600,106.400 243.330,106.400 243.000 C 106.400 242.670,106.220 242.400,106.000 242.400 C 105.780 242.400,105.600 241.950,105.600 241.400 C 105.600 240.778,105.373 240.400,105.000 240.400 C 104.627 240.400,104.400 240.022,104.400 239.400 C 104.400 238.850,104.220 238.400,104.000 238.400 C 103.780 238.400,103.600 237.950,103.600 237.400 C 103.600 236.778,103.373 236.400,103.000 236.400 C 102.581 236.400,102.400 235.978,102.400 235.000 C 102.400 234.230,102.220 233.600,102.000 233.600 C 101.780 233.600,101.600 232.880,101.600 232.000 C 101.600 230.844,101.433 230.400,101.000 230.400 C 100.533 230.400,100.400 229.867,100.400 228.000 C 100.400 226.667,100.222 225.600,100.000 225.600 C 99.749 225.600,99.600 223.133,99.600 219.000 C 99.600 214.867,99.749 212.400,100.000 212.400 C 100.222 212.400,100.400 211.333,100.400 210.000 C 100.400 208.133,100.533 207.600,101.000 207.600 C 101.373 207.600,101.600 207.222,101.600 206.600 C 101.600 206.050,101.780 205.600,102.000 205.600 C 102.220 205.600,102.400 204.880,102.400 204.000 C 102.400 202.844,102.567 202.400,103.000 202.400 C 103.373 202.400,103.600 202.022,103.600 201.400 C 103.600 200.850,103.780 200.400,104.000 200.400 C 104.220 200.400,104.400 199.950,104.400 199.400 C 104.400 198.778,104.627 198.400,105.000 198.400 C 105.373 198.400,105.600 198.022,105.600 197.400 C 105.600 196.850,105.780 196.400,106.000 196.400 C 106.220 196.400,106.400 195.950,106.400 195.400 C 106.400 194.850,106.593 194.400,106.829 194.400 C 107.064 194.400,107.514 194.143,107.829 193.829 C 108.143 193.514,108.400 193.064,108.400 192.829 C 108.400 192.593,108.670 192.400,109.000 192.400 C 109.373 192.400,109.600 192.022,109.600 191.400 C 109.600 190.655,109.811 190.400,110.429 190.400 C 111.314 190.400,112.400 189.534,112.400 188.829 C 112.400 188.593,112.593 188.400,112.829 188.400 C 113.382 188.400,114.400 187.382,114.400 186.829 C 114.400 186.593,114.593 186.400,114.829 186.400 C 115.382 186.400,116.400 185.382,116.400 184.829 C 116.400 184.593,116.850 184.400,117.400 184.400 C 117.950 184.400,118.400 184.220,118.400 184.000 C 118.400 183.780,118.850 183.600,119.400 183.600 C 120.022 183.600,120.400 183.373,120.400 183.000 C 120.400 182.627,120.778 182.400,121.400 182.400 C 121.950 182.400,122.400 182.220,122.400 182.000 C 122.400 181.780,123.120 181.600,124.000 181.600 C 125.156 181.600,125.600 181.433,125.600 181.000 C 125.600 180.547,126.089 180.400,127.600 180.400 C 128.700 180.400,129.600 180.220,129.600 180.000 C 129.600 179.755,131.533 179.600,134.600 179.600 C 137.667 179.600,139.600 179.755,139.600 180.000 M270.400 180.000 C 270.400 180.220,271.300 180.400,272.400 180.400 C 273.911 180.400,274.400 180.547,274.400 181.000 C 274.400 181.433,274.844 181.600,276.000 181.600 C 276.880 181.600,277.600 181.780,277.600 182.000 C 277.600 182.220,278.050 182.400,278.600 182.400 C 279.222 182.400,279.600 182.627,279.600 183.000 C 279.600 183.340,279.959 183.600,280.429 183.600 C 281.314 183.600,282.400 184.466,282.400 185.171 C 282.400 185.407,282.850 185.600,283.400 185.600 C 283.950 185.600,284.400 185.780,284.400 186.000 C 284.400 186.220,284.670 186.400,285.000 186.400 C 285.330 186.400,285.600 186.593,285.600 186.829 C 285.600 187.382,286.618 188.400,287.171 188.400 C 287.407 188.400,287.600 188.593,287.600 188.829 C 287.600 189.382,288.618 190.400,289.171 190.400 C 289.407 190.400,289.600 190.593,289.600 190.829 C 289.600 191.382,290.618 192.400,291.171 192.400 C 291.407 192.400,291.600 192.670,291.600 193.000 C 291.600 193.330,291.780 193.600,292.000 193.600 C 292.220 193.600,292.400 194.050,292.400 194.600 C 292.400 195.150,292.593 195.600,292.829 195.600 C 293.534 195.600,294.400 196.686,294.400 197.571 C 294.400 198.041,294.660 198.400,295.000 198.400 C 295.373 198.400,295.600 198.778,295.600 199.400 C 295.600 199.950,295.780 200.400,296.000 200.400 C 296.220 200.400,296.400 200.850,296.400 201.400 C 296.400 202.022,296.627 202.400,297.000 202.400 C 297.433 202.400,297.600 202.844,297.600 204.000 C 297.600 204.880,297.780 205.600,298.000 205.600 C 298.220 205.600,298.400 206.230,298.400 207.000 C 298.400 207.978,298.581 208.400,299.000 208.400 C 299.480 208.400,299.600 209.000,299.600 211.400 C 299.600 213.133,299.769 214.400,300.000 214.400 C 300.243 214.400,300.400 216.200,300.400 219.000 C 300.400 221.800,300.243 223.600,300.000 223.600 C 299.769 223.600,299.600 224.867,299.600 226.600 C 299.600 229.000,299.480 229.600,299.000 229.600 C 298.581 229.600,298.400 230.022,298.400 231.000 C 298.400 231.770,298.220 232.400,298.000 232.400 C 297.780 232.400,297.600 233.120,297.600 234.000 C 297.600 235.156,297.433 235.600,297.000 235.600 C 296.581 235.600,296.400 236.022,296.400 237.000 C 296.400 237.770,296.220 238.400,296.000 238.400 C 295.780 238.400,295.600 238.850,295.600 239.400 C 295.600 240.022,295.373 240.400,295.000 240.400 C 294.670 240.400,294.400 240.670,294.400 241.000 C 294.400 241.330,294.220 241.600,294.000 241.600 C 293.780 241.600,293.600 242.050,293.600 242.600 C 293.600 243.150,293.407 243.600,293.171 243.600 C 292.466 243.600,291.600 244.686,291.600 245.571 C 291.600 246.041,291.340 246.400,291.000 246.400 C 290.670 246.400,290.400 246.593,290.400 246.829 C 290.400 247.382,289.382 248.400,288.829 248.400 C 288.593 248.400,288.400 248.593,288.400 248.829 C 288.400 249.382,287.382 250.400,286.829 250.400 C 286.593 250.400,286.400 250.593,286.400 250.829 C 286.400 251.534,285.314 252.400,284.429 252.400 C 283.959 252.400,283.600 252.660,283.600 253.000 C 283.600 253.330,283.330 253.600,283.000 253.600 C 282.670 253.600,282.400 253.780,282.400 254.000 C 282.400 254.220,281.950 254.400,281.400 254.400 C 280.778 254.400,280.400 254.627,280.400 255.000 C 280.400 255.373,280.022 255.600,279.400 255.600 C 278.850 255.600,278.400 255.780,278.400 256.000 C 278.400 256.220,277.950 256.400,277.400 256.400 C 276.778 256.400,276.400 256.627,276.400 257.000 C 276.400 257.419,275.978 257.600,275.000 257.600 C 274.230 257.600,273.600 257.780,273.600 258.000 C 273.600 258.220,272.700 258.400,271.600 258.400 C 270.089 258.400,269.600 258.547,269.600 259.000 C 269.600 259.493,268.889 259.600,265.600 259.600 C 262.311 259.600,261.600 259.493,261.600 259.000 C 261.600 258.528,261.044 258.400,259.000 258.400 C 257.533 258.400,256.400 258.226,256.400 258.000 C 256.400 257.780,255.950 257.600,255.400 257.600 C 254.778 257.600,254.400 257.373,254.400 257.000 C 254.400 256.581,253.978 256.400,253.000 256.400 C 252.230 256.400,251.600 256.220,251.600 256.000 C 251.600 255.780,251.330 255.600,251.000 255.600 C 250.670 255.600,250.400 255.330,250.400 255.000 C 250.400 254.660,250.041 254.400,249.571 254.400 C 248.686 254.400,247.600 253.534,247.600 252.829 C 247.600 252.593,247.150 252.400,246.600 252.400 C 246.050 252.400,245.600 252.220,245.600 252.000 C 245.600 251.780,245.330 251.600,245.000 251.600 C 244.670 251.600,244.400 251.407,244.400 251.171 C 244.400 250.618,243.382 249.600,242.829 249.600 C 242.593 249.600,242.400 249.407,242.400 249.171 C 242.400 248.618,241.382 247.600,240.829 247.600 C 240.593 247.600,240.400 247.407,240.400 247.171 C 240.400 246.618,239.382 245.600,238.829 245.600 C 238.593 245.600,238.400 245.150,238.400 244.600 C 238.400 244.050,238.220 243.600,238.000 243.600 C 237.780 243.600,237.600 243.330,237.600 243.000 C 237.600 242.670,237.330 242.400,237.000 242.400 C 236.627 242.400,236.400 242.022,236.400 241.400 C 236.400 240.850,236.220 240.400,236.000 240.400 C 235.780 240.400,235.600 239.950,235.600 239.400 C 235.600 238.778,235.373 238.400,235.000 238.400 C 234.627 238.400,234.400 238.022,234.400 237.400 C 234.400 236.850,234.220 236.400,234.000 236.400 C 233.780 236.400,233.600 235.770,233.600 235.000 C 233.600 234.022,233.419 233.600,233.000 233.600 C 232.567 233.600,232.400 233.156,232.400 232.000 C 232.400 231.120,232.220 230.400,232.000 230.400 C 231.780 230.400,231.600 229.500,231.600 228.400 C 231.600 226.889,231.453 226.400,231.000 226.400 C 230.490 226.400,230.400 225.356,230.400 219.400 C 230.400 213.444,230.490 212.400,231.000 212.400 C 231.467 212.400,231.600 211.867,231.600 210.000 C 231.600 208.667,231.778 207.600,232.000 207.600 C 232.220 207.600,232.400 206.880,232.400 206.000 C 232.400 204.844,232.567 204.400,233.000 204.400 C 233.373 204.400,233.600 204.022,233.600 203.400 C 233.600 202.850,233.780 202.400,234.000 202.400 C 234.220 202.400,234.400 201.770,234.400 201.000 C 234.400 200.022,234.581 199.600,235.000 199.600 C 235.373 199.600,235.600 199.222,235.600 198.600 C 235.600 198.050,235.780 197.600,236.000 197.600 C 236.220 197.600,236.400 197.330,236.400 197.000 C 236.400 196.670,236.670 196.400,237.000 196.400 C 237.340 196.400,237.600 196.041,237.600 195.571 C 237.600 194.686,238.466 193.600,239.171 193.600 C 239.407 193.600,239.600 193.330,239.600 193.000 C 239.600 192.670,239.780 192.400,240.000 192.400 C 240.220 192.400,240.400 191.950,240.400 191.400 C 240.400 190.850,240.593 190.400,240.829 190.400 C 241.382 190.400,242.400 189.382,242.400 188.829 C 242.400 188.593,242.593 188.400,242.829 188.400 C 243.382 188.400,244.400 187.382,244.400 186.829 C 244.400 186.593,244.850 186.400,245.400 186.400 C 245.950 186.400,246.400 186.220,246.400 186.000 C 246.400 185.780,246.670 185.600,247.000 185.600 C 247.330 185.600,247.600 185.330,247.600 185.000 C 247.600 184.627,247.978 184.400,248.600 184.400 C 249.150 184.400,249.600 184.220,249.600 184.000 C 249.600 183.780,250.050 183.600,250.600 183.600 C 251.222 183.600,251.600 183.373,251.600 183.000 C 251.600 182.627,251.978 182.400,252.600 182.400 C 253.150 182.400,253.600 182.220,253.600 182.000 C 253.600 181.780,254.050 181.600,254.600 181.600 C 255.222 181.600,255.600 181.373,255.600 181.000 C 255.600 180.547,256.089 180.400,257.600 180.400 C 258.700 180.400,259.600 180.220,259.600 180.000 C 259.600 179.753,261.667 179.600,265.000 179.600 C 268.333 179.600,270.400 179.753,270.400 180.000 " stroke="none" fill="#5464f4" fill-rule="evenodd"></path><path id="path1" d="" stroke="none" fill="#5864f4" fill-rule="evenodd"></path><path id="path2" d="" stroke="none" fill="#5864f4" fill-rule="evenodd"></path><path id="path3" d="" stroke="none" fill="#5864f4" fill-rule="evenodd"></path><path id="path4" d="" stroke="none" fill="#5864f4" fill-rule="evenodd"></path></g></svg>