<svg id="svg" version="1.1" xmlns="http://www.w3.org/2000/svg" xmlns:xlink="http://www.w3.org/1999/xlink" width="400" height="398.89094269870606" viewBox="0, 0, 400,398.89094269870606"><g id="svgg"><path id="path0" d="M135.860 171.918 C 122.222 174.043,115.588 182.125,115.084 197.227 C 114.483 215.238,122.818 224.678,139.965 225.404 C 156.607 226.109,167.098 218.204,167.098 204.958 L 167.098 203.697 159.335 203.697 L 151.571 203.697 151.568 205.083 C 151.547 213.025,139.349 216.286,134.320 209.693 C 131.215 205.621,131.037 192.243,134.029 187.711 C 138.763 180.539,151.201 184.267,151.201 192.858 L 151.201 193.715 159.150 193.715 L 167.098 193.715 167.098 192.406 C 167.098 178.374,153.147 169.225,135.860 171.918 M71.559 173.845 C 71.234 174.709,66.920 186.520,61.973 200.092 L 52.979 224.769 61.519 224.769 L 70.060 224.769 71.128 221.072 L 72.195 217.375 81.506 217.375 L 90.816 217.375 91.867 221.072 L 92.918 224.769 101.767 224.769 C 108.691 224.769,110.578 224.668,110.442 224.307 C 110.347 224.053,106.150 212.532,101.114 198.706 C 96.079 184.880,91.808 173.276,91.623 172.921 C 91.316 172.330,90.456 172.274,81.718 172.274 L 72.150 172.274 71.559 173.845 M175.478 172.520 C 175.342 172.656,175.231 184.467,175.231 198.768 L 175.231 224.769 183.042 224.769 L 190.854 224.769 190.645 211.368 C 190.507 202.511,190.244 196.532,189.867 193.737 C 189.352 189.910,189.359 187.987,189.881 189.850 C 189.992 190.248,192.193 198.226,194.771 207.579 L 199.458 224.584 205.997 224.685 L 212.536 224.786 212.957 223.206 C 220.472 195.017,222.715 187.431,222.350 191.443 C 221.598 199.692,221.453 203.229,221.448 213.401 L 221.442 224.769 229.762 224.769 L 238.083 224.769 237.988 198.614 L 237.893 172.458 226.525 172.361 C 220.273 172.307,215.157 172.337,215.157 172.428 C 215.157 172.918,207.409 202.326,207.233 202.502 C 206.892 202.843,206.928 202.967,202.987 187.835 C 200.901 179.823,199.108 173.044,199.003 172.771 C 198.799 172.240,176.001 171.997,175.478 172.520 M268.746 172.736 C 268.737 172.990,271.435 184.801,274.741 198.983 L 280.752 224.769 289.889 224.769 C 298.274 224.769,299.041 224.716,299.212 224.122 C 299.314 223.766,300.837 216.654,302.598 208.318 C 304.358 199.982,305.867 193.091,305.949 193.007 C 306.287 192.661,306.559 193.783,309.609 208.145 C 311.357 216.373,312.881 223.480,312.996 223.937 L 313.204 224.769 322.337 224.769 L 331.470 224.769 337.458 199.168 C 340.751 185.088,343.444 173.276,343.442 172.921 C 343.438 172.324,342.804 172.274,335.336 172.274 L 327.233 172.274 326.860 174.030 C 326.655 174.995,325.363 181.733,323.989 189.002 C 322.615 196.271,321.392 202.218,321.272 202.218 C 321.152 202.218,319.632 195.522,317.895 187.338 L 314.735 172.458 306.563 172.359 C 299.015 172.267,298.376 172.310,298.200 172.914 C 298.095 173.273,296.726 180.021,295.158 187.909 C 293.589 195.797,292.183 202.118,292.034 201.957 C 291.884 201.796,290.486 195.342,288.927 187.616 C 287.368 179.889,286.008 173.276,285.905 172.921 C 285.663 172.086,268.774 171.904,268.746 172.736 M84.584 196.480 C 86.015 201.355,87.106 205.473,87.009 205.630 C 86.772 206.012,76.250 205.997,76.013 205.614 C 75.870 205.383,80.200 190.126,81.165 187.461 C 81.534 186.444,82.003 187.684,84.584 196.480 M245.841 203.697 L 245.841 209.612 255.453 209.612 L 265.065 209.612 265.065 203.697 L 265.065 197.782 255.453 197.782 L 245.841 197.782 245.841 203.697 " stroke="none" fill="#151414" fill-rule="evenodd"></path><path id="path1" d="M0.000 199.445 L 0.000 398.891 200.000 398.891 L 400.000 398.891 400.000 199.445 L 400.000 0.000 200.000 0.000 L 0.000 0.000 0.000 199.445 M150.411 172.307 C 160.441 174.617,166.169 181.224,167.295 191.782 L 167.542 194.099 159.279 194.000 L 151.017 193.900 150.779 192.052 C 149.501 182.113,135.950 181.093,132.864 190.702 C 131.879 193.769,131.901 203.342,132.900 206.457 C 136.088 216.394,151.571 214.509,151.571 204.184 L 151.571 203.327 159.556 203.327 L 167.540 203.327 167.302 205.638 C 165.920 219.059,157.694 225.592,142.144 225.620 C 125.973 225.648,117.293 218.929,115.107 204.692 C 111.500 181.203,127.063 166.927,150.411 172.307 M100.595 196.673 C 105.447 209.991,109.746 221.761,110.149 222.828 L 110.881 224.769 101.824 224.769 C 94.908 224.769,92.731 224.660,92.613 224.307 C 92.528 224.053,92.024 222.389,91.493 220.610 L 90.528 217.375 81.509 217.375 L 72.490 217.375 71.349 221.072 L 70.209 224.769 61.497 224.769 C 54.687 224.769,52.822 224.668,52.951 224.307 C 53.041 224.053,57.341 212.239,62.506 198.053 L 71.896 172.262 81.834 172.360 L 91.772 172.458 100.595 196.673 M199.261 172.479 C 199.261 172.888,206.659 200.942,206.941 201.605 C 207.139 202.070,208.463 197.512,211.102 187.282 L 214.972 172.277 226.525 172.275 L 238.078 172.274 238.078 198.521 L 238.078 224.769 229.575 224.769 L 221.072 224.769 221.082 215.434 C 221.090 207.040,221.440 198.223,221.987 192.606 C 222.097 191.479,220.086 198.190,217.473 207.671 L 212.761 224.769 206.039 224.769 L 199.316 224.769 198.808 223.013 C 198.528 222.047,196.397 214.323,194.071 205.848 C 191.746 197.373,189.808 190.476,189.764 190.520 C 189.719 190.564,189.920 192.590,190.209 195.023 C 190.564 198.013,190.739 203.548,190.746 212.107 L 190.758 224.769 182.994 224.769 L 175.231 224.769 175.231 198.521 L 175.231 172.274 187.246 172.274 C 193.854 172.274,199.261 172.366,199.261 172.479 M287.526 179.575 C 288.355 183.591,289.653 190.037,290.411 193.900 C 291.169 197.763,291.894 201.044,292.021 201.191 C 292.148 201.338,293.561 194.891,295.161 186.866 L 298.070 172.274 306.481 172.274 L 314.892 172.274 315.448 174.769 C 315.754 176.141,317.141 182.629,318.530 189.187 C 319.918 195.744,321.150 201.109,321.266 201.109 C 321.382 201.109,322.705 194.621,324.205 186.691 L 326.932 172.274 335.370 172.274 C 341.879 172.274,343.805 172.379,343.797 172.736 C 343.792 172.990,341.078 184.760,337.767 198.891 L 331.747 224.584 322.321 224.683 L 312.895 224.781 309.609 209.248 C 307.801 200.705,306.223 193.715,306.103 193.715 C 305.982 193.715,305.685 194.672,305.443 195.841 C 305.202 197.010,303.726 204.000,302.163 211.374 L 299.322 224.781 289.900 224.683 L 280.479 224.584 274.451 198.891 C 271.136 184.760,268.416 172.990,268.408 172.736 C 268.395 172.378,270.393 172.274,277.206 172.274 L 286.019 172.274 287.526 179.575 M78.820 196.043 C 77.353 200.964,76.153 205.116,76.154 205.268 C 76.155 205.421,78.567 205.545,81.516 205.545 C 84.464 205.545,86.876 205.449,86.876 205.331 C 86.876 205.090,81.660 187.288,81.555 187.170 C 81.518 187.128,80.287 191.121,78.820 196.043 M265.065 203.882 L 265.065 209.982 255.268 209.982 L 245.471 209.982 245.471 203.882 L 245.471 197.782 255.268 197.782 L 265.065 197.782 265.065 203.882 " stroke="none" fill="#fbcb3c" fill-rule="evenodd"></path><path id="path2" d="M114.721 198.521 C 114.721 199.843,114.788 200.384,114.870 199.723 C 114.952 199.062,114.952 197.981,114.870 197.320 C 114.788 196.659,114.721 197.200,114.721 198.521 M140.764 225.776 C 141.429 225.859,142.427 225.857,142.983 225.772 C 143.538 225.688,142.994 225.621,141.774 225.623 C 140.555 225.625,140.100 225.694,140.764 225.776 " stroke="none" fill="#9e822c" fill-rule="evenodd"></path><path id="path3" d="M154.970 193.991 C 157.145 194.056,160.805 194.056,163.103 193.992 C 165.402 193.927,163.623 193.873,159.150 193.873 C 154.677 193.873,152.796 193.926,154.970 193.991 M245.642 203.697 L 245.656 209.797 255.268 209.806 L 264.880 209.815 255.370 209.707 L 245.859 209.600 245.743 203.598 L 245.627 197.597 245.642 203.697 M155.750 203.603 C 157.947 203.669,161.441 203.668,163.514 203.603 C 165.587 203.537,163.789 203.483,159.519 203.484 C 155.250 203.484,153.553 203.538,155.750 203.603 M78.852 205.820 C 80.437 205.890,82.933 205.889,84.398 205.819 C 85.863 205.749,84.566 205.693,81.516 205.693 C 78.466 205.694,77.267 205.751,78.852 205.820 M141.128 213.200 C 141.585 213.288,142.334 213.288,142.791 213.200 C 143.249 213.112,142.874 213.040,141.959 213.040 C 141.044 213.040,140.670 213.112,141.128 213.200 " stroke="none" fill="#846c25" fill-rule="evenodd"></path><path id="path4" d="M140.948 171.430 C 141.510 171.515,142.342 171.512,142.796 171.425 C 143.251 171.337,142.791 171.267,141.774 171.270 C 140.758 171.273,140.386 171.345,140.948 171.430 M167.184 192.976 C 167.184 193.688,167.260 193.979,167.353 193.623 C 167.446 193.267,167.446 192.685,167.353 192.329 C 167.260 191.973,167.184 192.264,167.184 192.976 M167.184 204.436 C 167.184 205.148,167.260 205.439,167.353 205.083 C 167.446 204.727,167.446 204.145,167.353 203.789 C 167.260 203.433,167.184 203.725,167.184 204.436 M221.235 214.418 C 221.235 220.213,221.286 222.583,221.349 219.686 C 221.411 216.788,221.411 212.047,221.349 209.150 C 221.286 206.252,221.235 208.623,221.235 214.418 M120.518 217.861 C 120.518 217.924,121.058 218.465,121.719 219.062 L 122.921 220.148 121.835 218.946 C 120.823 217.826,120.518 217.575,120.518 217.861 " stroke="none" fill="#caa434" fill-rule="evenodd"></path></g></svg>